<!DOCTYPE svg PUBLIC "-//W3C//DTD SVG 1.1//EN" "http://www.w3.org/Graphics/SVG/1.1/DTD/svg11.dtd">
<!-- Uploaded to: SVG Repo, www.svgrepo.com, Transformed by: SVG Repo Mixer Tools -->
<svg fill="#f3722c" width="256px" height="256px" viewBox="0 0 24 24" xmlns="http://www.w3.org/2000/svg" stroke="#f3722c" stroke-width="0.6">
<g id="SVGRepo_bgCarrier" stroke-width="0"/>
<g id="SVGRepo_tracerCarrier" stroke-linecap="round" stroke-linejoin="round"/>
<g id="SVGRepo_iconCarrier"> <path fill-rule="evenodd" d="M15,3.41421356 L15,7 L18.5857864,7 L15,3.41421356 Z M19,9 L15,9 C13.8954305,9 13,8.1045695 13,7 L13,3 L5,3 L5,21 L19,21 L19,9 Z M5,1 L15.4142136,1 L21,6.58578644 L21,21 C21,22.1045695 20.1045695,23 19,23 L5,23 C3.8954305,23 3,22.1045695 3,21 L3,3 C3,1.8954305 3.8954305,1 5,1 Z M11,15.5857864 L15.2928932,11.2928932 L16.7071068,12.7071068 L11,18.4142136 L7.29289322,14.7071068 L8.70710678,13.2928932 L11,15.5857864 Z"/> </g>
</svg>